# xmcd CD database file
#
# Track frame offsets:
#	150
#	22690
#	41350
#	60667
#	82700
#	100247
#	120047
#
# Disc length: 1779 seconds
#
# Revision: 1
# Processed by: cddbd v1.5.1PL0 Copyright (c) Steve Scherf et al.
# Submitted via: CDex 1.51
#
DISCID=3a06f107
DTITLE=Junko Ohashi - J' Selection Vol.3
DYEAR=1996
DGENRE=Vocal
TTITLE0=You Are So Beautiful
TTITLE1=We've Only Just Begun
TTITLE2=Killing Me Softly With His Song
TTITLE3=I'm Not In Love
TTITLE4=Without You
TTITLE5=You Light Up My Life
TTITLE6=You Are So Butiful-reprise
EXTD=YEAR: 1996
EXTT0=
EXTT1=
EXTT2=
EXTT3=
EXTT4=
EXTT5=
EXTT6=
PLAYORDER=
